<svg id="Layer_1" data-name="Layer 1" xmlns="http://www.w3.org/2000/svg" xmlns:xlink="http://www.w3.org/1999/xlink" viewBox="0 0 1544 500"><defs><style>.cls-1{fill:none;}.cls-2{clip-path:url(#clip-path);}.cls-3{font-size:64px;font-family:Gotham-Book, Gotham;}.cls-3,.cls-6{fill:#6d6e71;}.cls-4{letter-spacing:-0.09em;}.cls-5{fill:#f79026;}.cls-7{fill:#ec2326;}.cls-8{clip-path:url(#clip-path-2);}</style><clipPath id="clip-path"><path class="cls-1" d="M-473.91,68.37H650.73a16,16,0,0,1,16,16v29.71a16,16,0,0,1-16,16H-473.91a30.86,30.86,0,0,1-30.86-30.86v0a30.86,30.86,0,0,1,30.86-30.86Z"/></clipPath><clipPath id="clip-path-2"><path class="cls-1" d="M-23.57-36.57H1059.5a0,0,0,0,1,0,0V35.18a17,17,0,0,1-17,17H-23.57a0,0,0,0,1,0,0V-36.57A0,0,0,0,1-23.57-36.57Z"/></clipPath></defs><g class="cls-2"><image width="564" height="1002" transform="matrix(0.15, 0.68, -0.68, 0.15, 634.17, -204.01)" xlink:href="../../Downloads/770cad3de3be7306537549d59488e66a.jpg"/></g><text class="cls-3" transform="translate(497.85 298.07) scale(0.7)">SOFT<tspan class="cls-4" x="178.81" y="0">W</tspan><tspan x="243.9" y="0">ARE</tspan></text><text class="cls-3" transform="translate(766.38 298.07)"> </text><text class="cls-3" transform="translate(785.57 298.07) scale(0.7)">ENGINEER</text><text class="cls-3" transform="translate(1026.95 298.07)"> </text><path class="cls-5" d="M547.52,168.85h28.32v-4.29H547.52c-.5,0-1,0-1.5,0a38.94,38.94,0,0,0-17.33,4.73c-11.3,6.18-18.92,17.77-18.92,31.05s7.62,24.86,18.92,31a40.72,40.72,0,0,0,4.44,2.06A38.72,38.72,0,0,0,546,236.14c.5,0,1,0,1.5,0h28.32v-4.29H547.52a34.74,34.74,0,0,1-14.39-3.1V172A34.59,34.59,0,0,1,547.52,168.85Zm-18.83,57.49a30.61,30.61,0,0,1,0-51.94Z"/><path class="cls-5" d="M308.67,169.22H337V165H308.67c-.5,0-1,0-1.5,0a39.72,39.72,0,0,0-12.89,2.62,38.86,38.86,0,0,0-4.44,2.05c-11.3,6.11-18.92,17.57-18.92,30.69s7.62,24.56,18.92,30.69a40.53,40.53,0,0,0,4.44,2,39.2,39.2,0,0,0,12.89,2.63c.5,0,1,0,1.5,0H337v-4.24H308.67a35,35,0,0,1-14.39-3.06V172.29A34.89,34.89,0,0,1,308.67,169.22ZM289.84,226a30.07,30.07,0,0,1,0-51.34Z"/><rect class="cls-6" x="593.38" y="192.17" width="4.43" height="43.55"/><polygon class="cls-6" points="610.93 165.01 610.93 187.46 606.49 187.46 606.49 169.54 597.81 169.54 597.81 187.46 593.38 187.46 593.38 165.01 610.93 165.01"/><polygon class="cls-6" points="657.73 165.01 657.73 235.72 653.29 235.72 653.29 203.7 610.93 203.7 610.93 235.72 606.49 235.72 606.49 192.17 610.93 192.17 610.93 199.18 653.29 199.18 653.29 165.01 657.73 165.01"/><rect class="cls-6" x="354.23" y="192.17" width="4.44" height="43.55"/><polygon class="cls-6" points="371.77 165.01 371.77 187.46 367.34 187.46 367.34 169.54 358.67 169.54 358.67 187.46 354.23 187.46 354.23 165.01 371.77 165.01"/><polygon class="cls-6" points="418.59 165.01 418.59 235.72 414.14 235.72 414.14 203.7 371.77 203.7 371.77 235.72 367.34 235.72 367.34 192.17 371.77 192.17 371.77 199.18 414.14 199.18 414.14 165.01 418.59 165.01"/><path class="cls-7" d="M502.8,236h-5.51l-5.15-14.27-33.35.32-2.92,9.36L454.44,236H435.8l1.41-4.51,2.88-9.18,1.48-4.74,7.93-25.3h5.22l-7.92,25.24-1.48,4.75-2.9,9.23h8.22l2.93-9.3,1.48-4.75,7.88-25.17h5.22l-7.87,25.12,30.16-.3-16.09-44.57-4.63,14.79h-5.23l7.06-22.53,5.29,0L495.72,217l1.5,4.15v0Z"/><polygon class="cls-7" points="463.34 164.71 456.27 187.26 451.05 187.26 458.12 164.71 463.34 164.71"/><path class="cls-7" d="M742.28,236h-5.51l-5.16-14.27-33.34.32-2.92,9.36L693.92,236H675.28l1.4-4.51,2.88-9.18,1.49-4.74,7.93-25.3h5.21l-7.91,25.24-1.48,4.75-2.9,9.23h8.22l2.92-9.3,1.48-4.75,7.89-25.17h5.22l-7.87,25.12,30.15-.3-16.08-44.57-4.64,14.79H704L711,164.73l5.29,0L735.19,217l1.5,4.15v0Z"/><polygon class="cls-7" points="702.81 164.71 695.75 187.26 690.53 187.26 697.59 164.71 702.81 164.71"/><path class="cls-5" d="M1078.33,168.85h28.31v-4.29h-28.31c-.5,0-1,0-1.5,0a38.94,38.94,0,0,0-17.33,4.73c-11.31,6.18-18.93,17.77-18.93,31.05s7.62,24.86,18.93,31a40.72,40.72,0,0,0,4.44,2.06,38.72,38.72,0,0,0,12.89,2.66c.5,0,1,0,1.5,0h28.31v-4.29h-28.31a34.74,34.74,0,0,1-14.39-3.1V172A34.59,34.59,0,0,1,1078.33,168.85Zm-18.83,57.49a30.61,30.61,0,0,1,0-51.94Z"/><path class="cls-5" d="M839.47,169.22h28.32V165H839.47c-.49,0-1,0-1.49,0a39.72,39.72,0,0,0-12.89,2.62,37.34,37.34,0,0,0-4.44,2.05c-11.31,6.11-18.93,17.57-18.93,30.69s7.62,24.56,18.93,30.69A39.77,39.77,0,0,0,838,235.72c.5,0,1,0,1.49,0h28.32v-4.24H839.47a35,35,0,0,1-14.38-3.06V172.29A34.87,34.87,0,0,1,839.47,169.22ZM820.65,226a30.07,30.07,0,0,1,0-51.34Z"/><rect class="cls-6" x="1124.19" y="192.17" width="4.43" height="43.55"/><polygon class="cls-6" points="1141.73 165.01 1141.73 187.46 1137.29 187.46 1137.29 169.54 1128.62 169.54 1128.62 187.46 1124.19 187.46 1124.19 165.01 1141.73 165.01"/><polygon class="cls-6" points="1188.54 165.01 1188.54 235.72 1184.1 235.72 1184.1 203.7 1141.73 203.7 1141.73 235.72 1137.29 235.72 1137.29 192.17 1141.73 192.17 1141.73 199.18 1184.1 199.18 1184.1 165.01 1188.54 165.01"/><rect class="cls-6" x="885.04" y="192.17" width="4.44" height="43.55"/><polygon class="cls-6" points="902.58 165.01 902.58 187.46 898.15 187.46 898.15 169.54 889.48 169.54 889.48 187.46 885.03 187.46 885.03 165.01 902.58 165.01"/><polygon class="cls-6" points="949.4 165.01 949.4 235.72 944.95 235.72 944.95 203.7 902.58 203.7 902.58 235.72 898.15 235.72 898.15 192.17 902.58 192.17 902.58 199.18 944.95 199.18 944.95 165.01 949.4 165.01"/><path class="cls-7" d="M1033.61,236h-5.51l-5.16-14.27-33.34.32-2.92,9.36L985.25,236H966.61l1.4-4.51,2.88-9.18,1.49-4.74,7.93-25.3h5.21l-7.91,25.24-1.48,4.75-2.9,9.23h8.22l2.92-9.3,1.48-4.75,7.89-25.17H999l-7.87,25.12,30.15-.3-16.08-44.57-4.64,14.79h-5.23l7.07-22.53,5.29,0L1026.52,217l1.5,4.15v0Z"/><polygon class="cls-7" points="994.14 164.71 987.08 187.26 981.86 187.26 988.92 164.71 994.14 164.71"/><path class="cls-7" d="M1273.08,236h-5.51l-5.15-14.27-33.34.32-2.93,9.36-1.42,4.52h-18.65l1.41-4.51,2.88-9.18,1.49-4.74,7.92-25.3H1225l-7.91,25.24-1.49,4.75-2.89,9.23h8.21l2.93-9.3,1.48-4.75,7.89-25.17h5.22l-7.87,25.12,30.15-.3-16.09-44.57L1240,187.26h-5.23l7.07-22.53,5.29,0L1266,217l1.5,4.15v0Z"/><polygon class="cls-7" points="1233.62 164.71 1226.55 187.26 1221.34 187.26 1228.4 164.71 1233.62 164.71"/><rect class="cls-5" x="636.13" y="326.44" width="271.74" height="9" rx="4.5"/><g class="cls-8"><image width="564" height="846" transform="matrix(1.35, -1.04, 1.04, 1.35, -94.91, -19.49)" xlink:href="../../Downloads/911d3a402d290bbbbf1c47cac5c47263.jpg"/></g></svg>